HIERARCHY
ROOT Hips
{
	OFFSET 0.000000 0.000000 0.000000 
	CHANNELS 6 Xposition Yposition Zposition Zrotation Yrotation Xrotation
	JOINT LeftUpLeg
	{
		OFFSET 1.363060 -1.794630 0.839290 
		CHANNELS 3 Zrotation Yrotation Xrotation
		JOINT LeftLeg
		{
			OFFSET 2.448110 -6.726130 0.000000 
			CHANNELS 3 Zrotation Yrotation Xrotation
			JOINT LeftFoot
			{
				OFFSET 2.562200 -7.039590 0.000000 
				CHANNELS 3 Zrotation Yrotation Xrotation
				JOINT LeftToeBase
				{
					OFFSET 0.157640 -0.433110 2.322550 
					CHANNELS 3 Zrotation Yrotation Xrotation
					End Site
					{
						OFFSET 0.000000 0.000000 0.000000 
					}
				}
			}
		}
	}
	JOINT RightUpLeg
	{
		OFFSET -1.305520 -1.794630 0.839290 
		CHANNELS 3 Zrotation Yrotation Xrotation
		JOINT RightLeg
		{
			OFFSET -2.542530 -6.985550 0.000000 
			CHANNELS 3 Zrotation Yrotation Xrotation
			JOINT RightFoot
			{
				OFFSET -2.568260 -7.056230 0.000000 
				CHANNELS 3 Zrotation Yrotation Xrotation
				JOINT RightToeBase
				{
					OFFSET -0.164730 -0.452590 2.363150 
					CHANNELS 3 Zrotation Yrotation Xrotation
					End Site
					{
						OFFSET 0.000000 0.000000 0.000000 
					}
				}
			}
		}
	}
	JOINT Spine
	{
		OFFSET 0.028270 2.035590 -0.193380 
		CHANNELS 3 Zrotation Yrotation Xrotation
		JOINT Spine1
		{
			OFFSET 0.056720 2.048850 -0.042750 
			CHANNELS 3 Zrotation Yrotation Xrotation
			JOINT Neck1
			{
				OFFSET -0.054170 1.746240 0.172020 
				CHANNELS 3 Zrotation Yrotation Xrotation
				JOINT Head
				{
					OFFSET 0.104070 1.761360 -0.123970 
					CHANNELS 3 Zrotation Yrotation Xrotation
					End Site
					{
						OFFSET 0.000000 0.000000 0.000000 
					}
				}
			}
			JOINT LeftArm
			{
				OFFSET 3.362410 1.200890 -0.311210 
				CHANNELS 3 Zrotation Yrotation Xrotation
				JOINT LeftForeArm
				{
					OFFSET 4.983000 -0.000000 -0.000000 
					CHANNELS 3 Zrotation Yrotation Xrotation
					JOINT LeftHand
					{
						OFFSET 3.483560 -0.000000 -0.000000 
						CHANNELS 3 Zrotation Yrotation Xrotation
						JOINT LeftHandIndex1
						{
							OFFSET 0.715260 -0.000000 -0.000000 
							CHANNELS 3 Zrotation Yrotation Xrotation
							End Site
							{
								OFFSET 0.000000 0.000000 0.000000 
							}
						}
					}
				}
			}
			JOINT RightArm
			{
				OFFSET -3.136600 1.374050 -0.404650 
				CHANNELS 3 Zrotation Yrotation Xrotation
				JOINT RightForeArm
				{
					OFFSET -5.241900 -0.000000 -0.000000 
					CHANNELS 3 Zrotation Yrotation Xrotation
					JOINT RightHand
					{
						OFFSET -3.444170 -0.000000 -0.000000 
						CHANNELS 3 Zrotation Yrotation Xrotation
						JOINT RightHandIndex1
						{
							OFFSET -0.622530 -0.000000 -0.000000 
							CHANNELS 3 Zrotation Yrotation Xrotation
							End Site
							{
								OFFSET 0.000000 0.000000 0.000000 
							}
						}
					}
				}
			}
		}
	}
}
MOTION
Frames: 15
Frame Time: 0.041667
17.959340 16.918218 -1.132390 -178.003826 -32.977439 -163.994983 -28.846129 19.822914 -16.523538 3.936486 15.342022 41.096047 4.077828 -5.192823 10.483727 3.409600 -11.330300 -33.402000 0.040031 20.469174 -50.733177 -6.116986 -17.442937 48.811358 -2.152648 6.300577 8.427825 -0.935000 6.159500 -17.247900 1.785340 -7.498574 2.889708 2.323082 -4.291173 3.599518 -9.116567 12.296747 -9.720952 -3.847800 6.011400 -3.001300 -49.013744 -29.670874 40.435845 97.363731 -52.881242 -70.263192 1.077432 -1.259577 7.182899 -7.125000 0.000000 0.000000 57.000158 25.727009 43.761471 -111.736855 51.860310 -81.270011 0.773799 0.220537 0.115257 7.125000 0.000000 0.000000 
17.968554 16.832261 -1.076351 -177.443779 -31.408864 -163.667030 -30.375879 21.299846 -16.402986 2.844287 14.064183 36.440342 3.869532 -4.214938 9.898769 3.319600 -11.195300 -32.941200 0.111076 21.469501 -52.661766 -6.473277 -17.862864 50.120728 -1.967898 5.368931 9.152896 -0.602500 4.968600 -13.819100 2.052063 -7.882802 2.926900 2.822828 -4.533232 3.735337 -9.394114 12.701680 -9.631484 -3.956800 6.200800 -2.905900 -44.675808 -29.970808 37.702982 93.813579 -53.049843 -67.336150 1.169245 -1.331979 6.117845 -7.125000 0.000000 0.000000 56.311401 28.807532 43.084800 -108.543501 52.143805 -78.470068 0.792738 0.196488 0.652032 7.125000 0.000000 0.000000 
17.979610 16.747064 -1.020094 -176.933827 -29.991189 -163.332415 -31.757043 22.369153 -16.090121 1.889817 12.710791 31.852310 3.646295 -3.273676 9.484113 3.037700 -10.755900 -31.461000 0.065643 22.469608 -54.434706 -6.798759 -18.241093 51.277777 -1.770173 4.283969 9.890027 -0.254600 3.246700 -8.966400 2.375756 -8.318211 2.966353 3.511757 -4.814683 3.885155 -9.545127 13.120397 -9.595359 -3.982600 6.405700 -2.866200 -40.262884 -29.865939 34.950360 90.005363 -53.235464 -64.175868 1.263663 -1.393693 5.071867 -7.125000 0.000000 0.000000 55.588445 31.742462 42.633080 -105.346628 52.285894 -75.581431 0.817916 0.169837 0.942031 7.125000 0.000000 0.000000 
17.991967 16.666310 -0.964163 -176.533807 -28.769426 -163.039922 -32.985964 23.083365 -15.454864 1.107362 11.348199 27.490653 3.476491 -2.561345 9.147848 2.604500 -10.025500 -29.059500 -0.124128 23.435127 -55.904280 -7.061497 -18.557310 52.184430 -1.570796 3.112027 10.615904 -0.018300 0.873300 -2.400400 2.695621 -8.795557 3.028172 4.291023 -5.130181 4.059726 -9.570564 13.516394 -9.579568 -3.942400 6.601800 -2.856800 -35.749381 -29.429825 32.307153 85.951838 -53.418562 -60.808188 1.352411 -1.450394 4.106131 -7.125000 0.000000 0.000000 54.931901 34.516539 42.323764 -102.243130 52.292769 -72.699924 0.851931 0.141746 1.032117 7.125000 0.000000 0.000000 
18.001289 16.601166 -0.909858 -176.270043 -27.749921 -162.822662 -34.032372 23.441700 -14.489430 0.507170 10.041766 23.518830 3.527563 -2.497829 9.011135 1.849500 -8.545300 -24.383000 -0.455385 24.337970 -56.946114 -7.233681 -18.797371 52.765168 -1.386787 1.971725 11.246081 -0.089500 -1.929700 5.311500 2.950109 -9.284193 3.115790 5.043634 -5.460092 4.258522 -9.487628 13.843092 -9.551264 -3.870500 6.759800 -2.854900 -31.126008 -28.758183 29.935654 81.637294 -53.557853 -57.222577 1.429679 -1.505556 3.270636 -7.125000 0.000000 0.000000 54.446033 37.107536 42.067365 -99.296380 52.187602 -69.900767 0.895732 0.112920 1.006059 7.125000 0.000000 0.000000 
18.004432 16.556182 -0.858588 -176.131332 -26.910998 -162.678640 -34.901436 23.482688 -13.249315 0.071102 8.830656 19.962181 3.680732 -2.757529 8.892015 1.045800 -6.503200 -18.251800 -0.920889 25.173510 -57.566052 -7.314173 -18.966997 53.040717 -1.242387 1.039871 11.697041 -0.492300 -4.498700 12.484000 3.072035 -9.734637 3.231874 5.615534 -5.771347 4.493531 -9.334054 14.062428 -9.486541 -3.812500 6.854200 -2.837000 -26.394422 -27.975630 28.010720 77.065379 -53.594495 -53.411874 1.491491 -1.560105 2.617289 -7.125000 0.000000 0.000000 54.240035 39.516051 41.761088 -96.521502 52.000795 -67.224836 0.949640 0.083350 0.978574 7.125000 0.000000 0.000000 
18.003890 16.518136 -0.811436 -176.066545 -26.226279 -162.591719 -35.619542 23.298961 -11.754599 -0.234680 7.720781 16.739472 3.729949 -2.806714 8.441851 0.508900 -4.572600 -12.693400 -1.492887 25.949847 -57.934902 -7.332439 -19.089885 53.129944 -1.163105 0.483636 11.961000 -0.914400 -6.092900 17.054100 3.053705 -10.088109 3.352165 5.954345 -6.025320 4.730334 -9.149253 14.146438 -9.394031 -3.804800 6.870300 -2.807700 -21.694212 -27.218590 26.691396 72.318532 -53.463797 -49.425835 1.533437 -1.609300 2.189735 -7.125000 0.000000 0.000000 54.293549 41.676170 41.297764 -93.908683 51.770543 -64.694282 1.011527 0.054469 1.044412 7.125000 0.000000 0.000000 
18.000530 16.478139 -0.769488 -176.015462 -25.668716 -162.536629 -36.219941 23.018951 -10.004790 -0.461641 6.594814 13.497193 3.623952 -2.494777 7.748831 0.216700 -2.996700 -8.269600 -2.122002 26.665194 -58.224818 -7.331028 -19.194361 53.182608 -1.160957 0.399395 12.013697 -0.970900 -6.273100 17.579000 2.968385 -10.364276 3.445936 6.159871 -6.231396 4.966059 -8.804794 14.246641 -9.422870 -3.820300 7.548300 -2.855900 -17.266996 -26.522803 25.927529 67.550551 -53.111580 -45.409143 1.547282 -1.647092 2.037440 -7.125000 0.000000 0.000000 54.460954 43.552159 40.772720 -91.469623 51.522034 -62.318196 1.078577 0.027764 1.213384 7.125000 0.000000 0.000000 
17.996086 16.427627 -0.733609 -175.918415 -25.168887 -162.486486 -36.964771 23.916352 -8.364087 -0.598640 5.195991 9.648625 3.843528 -3.023509 7.552513 0.059900 -1.579700 -4.345500 -2.743190 27.338911 -58.592647 -7.345706 -19.304879 53.312690 -1.225998 0.766917 11.804629 -0.557900 -4.784500 13.295000 2.863147 -10.552813 3.507351 6.264151 -6.377572 5.163259 -8.555232 14.150517 -9.387060 -3.838400 7.469700 -2.895600 -13.315314 -25.912289 25.675541 62.967109 -52.546086 -41.545337 1.529895 -1.671115 2.216771 -7.125000 0.000000 0.000000 54.637902 45.093981 40.221324 -89.214888 51.281326 -60.113734 1.147575 0.004499 1.476562 7.125000 0.000000 0.000000 
17.992509 16.357171 -0.704885 -175.780859 -24.793887 -162.421757 -37.647210 25.412262 -4.192009 -0.553464 2.128083 1.335726 3.573635 -2.244870 8.876979 0.017200 -0.845700 -2.324300 -3.290175 27.912051 -59.166723 -7.408418 -19.441567 53.606000 -1.326194 1.453844 11.229631 -0.062500 -1.612900 4.436900 2.823296 -10.738055 3.520715 6.397015 -6.523266 5.327878 -8.325468 14.030309 -9.369107 -3.836300 7.389000 -2.961300 -10.055116 -25.307075 25.783809 58.804416 -51.804865 -38.069615 1.483237 -1.683359 2.767332 -7.125000 0.000000 0.000000 54.698958 46.280437 39.820250 -87.192625 51.063856 -58.106326 1.215380 -0.015465 1.777565 7.125000 0.000000 0.000000 
17.983079 16.286173 -0.682773 -175.578597 -24.295561 -162.366725 -38.063859 25.868306 -4.613046 -0.539334 2.187709 1.400206 3.818815 -3.025518 6.841116 0.000500 -0.150100 -0.412500 -3.689828 28.391750 -59.769859 -7.512679 -19.574793 54.008989 -1.431788 2.288307 10.203906 -0.138600 2.399100 -6.610100 2.818297 -10.845991 3.511442 6.542800 -6.601159 5.467321 -8.114802 13.875855 -9.356454 -3.814500 7.298700 -3.031400 -7.535046 -24.707524 26.180425 55.289198 -51.002348 -35.179401 1.417340 -1.692028 3.664039 -7.125000 0.000000 0.000000 54.613738 47.085245 39.537027 -85.453756 50.887999 -56.361078 1.278070 -0.029205 2.070852 7.125000 0.000000 0.000000 
17.968662 16.216584 -0.667598 -175.353618 -23.823840 -162.277871 -38.457546 26.278237 -5.083072 -0.530255 2.247726 1.456987 4.006554 -3.570740 4.995227 0.002500 0.324700 0.892100 -3.924081 28.699056 -60.416317 -7.649388 -19.704976 54.480669 -1.524948 3.091267 8.823033 -0.843900 5.859600 -16.377500 2.828620 -10.877229 3.490821 6.631072 -6.627023 5.578238 -7.967583 13.667130 -9.302924 -3.804900 7.183300 -3.061500 -5.720249 -24.181519 26.812063 52.574915 -50.277993 -32.985765 1.344835 -1.704382 4.832546 -7.125000 0.000000 0.000000 54.390161 47.466312 39.231553 -84.064535 50.773614 -54.975883 1.330266 -0.031625 2.325219 7.125000 0.000000 0.000000 
17.949585 16.151765 -0.659576 -175.132865 -23.379584 -162.156588 -38.833644 26.646396 -5.550000 -0.524419 2.301262 1.503764 4.147362 -3.938547 3.440938 0.009000 0.611700 1.680900 -3.997382 28.843273 -61.043201 -7.796515 -19.818201 54.950269 -1.606943 3.779590 7.283424 -1.665100 8.130500 -23.111100 2.839098 -10.813450 3.468532 6.639440 -6.591689 5.659089 -7.876602 13.406380 -9.224875 -3.816700 7.042400 -3.052800 -4.568147 -23.763901 27.613354 50.720407 -49.740707 -31.518943 1.276663 -1.723358 6.130994 -7.125000 0.000000 0.000000 54.057791 47.392041 38.837965 -83.101170 50.739430 -54.042072 1.365639 -0.019870 2.533425 7.125000 0.000000 0.000000 
17.924221 16.101795 -0.658709 -174.946319 -22.974684 -162.016436 -39.180189 26.957926 -6.003239 -0.520367 2.341811 1.538443 4.255086 -4.194156 2.297363 0.015000 0.791500 2.175300 -3.937975 28.846551 -61.546143 -7.930668 -19.902347 55.352896 -1.683224 4.339985 5.783422 -2.243300 9.355500 -26.913800 2.869115 -10.692331 3.441595 6.638868 -6.520773 5.707258 -7.820856 13.140033 -9.164757 -3.833000 6.902100 -3.031500 -4.061457 -23.399525 28.515577 49.710106 -49.437453 -30.755872 1.221648 -1.748231 7.372303 -7.125000 0.000000 0.000000 53.670743 46.868689 38.464446 -82.656308 50.801009 -53.634885 1.379278 0.005921 2.669101 7.125000 0.000000 0.000000 
17.895496 16.064508 -0.664779 -174.808541 -22.639055 -161.874300 -39.472977 27.207617 -6.370779 -0.515758 2.367669 1.560619 4.350964 -4.413296 1.582445 0.019400 0.900300 2.474600 -3.804345 28.746579 -61.910186 -8.041965 -19.956803 55.670768 -1.753590 4.779032 4.539062 -2.506900 9.850500 -28.493800 2.897436 -10.510619 3.418545 6.593493 -6.413410 5.720548 -7.788925 12.863533 -9.171653 -3.871300 6.758000 -3.021800 -4.127607 -23.160111 29.554398 49.432598 -49.371861 -30.560009 1.187085 -1.773654 8.355433 -7.125000 0.000000 0.000000 53.326783 45.900225 38.079179 -82.779972 50.968450 -53.816084 1.367582 0.045622 2.705423 7.125000 0.000000 0.000000 
